<svg width="56" height="56" viewBox="0 0 56 56" fill="none" xmlns="http://www.w3.org/2000/svg">
<rect x="10" y="10" width="46" height="46" rx="11" fill="#EBFAE5"/>
<rect x="5.5" y="5.5" width="45" height="45" rx="9.5" stroke="#89C949" stroke-width="3"/>
<circle cx="31" cy="31" r="12" fill="white"/>
<path d="M21.9815 17.9999C21.7063 18.1656 21.4382 18.3425 21.178 18.5301C20.3136 19.1531 19.5355 19.8939 18.8675 20.734C17.6816 22.2257 16.8791 23.9852 16.5302 25.8587C16.1813 27.7322 16.2967 29.6627 16.8662 31.4813C17.4358 33.2999 18.4421 34.9513 19.7973 36.2911C21.1525 37.6309 22.8153 38.6184 24.6403 39.1671C26.4653 39.7158 28.3969 39.8092 30.2663 39.4389C32.1357 39.0687 33.8859 38.2461 35.364 37.0432C36.1024 36.4423 36.7616 35.7555 37.329 34.9999C37.5695 34.6796 37.7935 34.347 38 34.0033" stroke="#89C949" stroke-width="3" stroke-linecap="round" stroke-linejoin="round"/>
<path d="M39.6667 28C39.6667 26.4679 39.3649 24.9508 38.7786 23.5354C38.1923 22.1199 37.3329 20.8338 36.2496 19.7504C35.1662 18.6671 33.8801 17.8077 32.4646 17.2214C31.0492 16.6351 29.5321 16.3333 28 16.3333V28H39.6667Z" stroke="#89C949" stroke-width="3" stroke-linecap="round" stroke-linejoin="round"/>
</svg>
