<svg width="24" height="24" viewBox="0 0 24 24" fill="none" xmlns="http://www.w3.org/2000/svg">
<path d="M18 7C18 5.34315 15.3137 4 12 4C8.68629 4 6 5.34315 6 7" stroke="#8354BF" stroke-width="2" stroke-linecap="round" stroke-linejoin="round"/>
<path d="M12 20C15.3137 20 18 18.6569 18 17C18 15.3431 15.3137 14 12 14C8.68629 14 6 15.3431 6 17C6 18.6569 8.68629 20 12 20Z" stroke="#8354BF" stroke-width="2" stroke-linecap="round" stroke-linejoin="round"/>
<path d="M6 7L6 16.88C6 18.6064 8.66667 20 12 20C15.3333 20 18 18.6064 18 16.88V7" stroke="#8354BF" stroke-width="2" stroke-linecap="round" stroke-linejoin="round"/>
<path d="M10 14L6 18" stroke="#8354BF" stroke-width="2"/>
<path d="M14 14L9 19" stroke="#8354BF" stroke-width="2"/>
<path d="M17 15L12 20" stroke="#8354BF" stroke-width="2"/>
<path d="M12 10C15.3137 10 18 8.65685 18 7C18 5.34315 15.3137 4 12 4C8.68629 4 6 5.34315 6 7C6 8.65685 8.68629 10 12 10Z" stroke="#8354BF" stroke-width="2" stroke-linecap="round" stroke-linejoin="round"/>
</svg>
