<svg width="32" height="32" viewBox="0 0 32 32" fill="none" xmlns="http://www.w3.org/2000/svg">
<g clip-path="url(#clip0_220_2155)">
<rect x="5.71484" y="5.71429" width="26.2857" height="26.2857" rx="7" fill="#EBFAE5"/>
<rect x="3.78613" y="3.78572" width="24.4286" height="24.4286" rx="5.5" stroke="#89C949" stroke-width="3"/>
<circle cx="17.7146" cy="17.7143" r="6.85714" fill="white"/>
<path d="M12.5617 10.2857C12.4044 10.3804 12.2513 10.4814 12.1026 10.5886C11.6086 10.9446 11.164 11.3679 10.7823 11.848C10.1046 12.7004 9.64601 13.7059 9.44665 14.7764C9.24729 15.847 9.31322 16.9501 9.63868 17.9893C9.96413 19.0285 10.5392 19.9722 11.3136 20.7378C12.088 21.5034 13.0382 22.0676 14.081 22.3812C15.1239 22.6948 16.2277 22.7481 17.2959 22.5365C18.3641 22.3249 19.3642 21.8549 20.2088 21.1675C20.6308 20.8241 21.0075 20.4317 21.3317 19.9999C21.4691 19.8169 21.5971 19.6269 21.7151 19.4304" stroke="#89C949" stroke-width="3" stroke-linecap="round" stroke-linejoin="round"/>
<path d="M22.6667 16C22.6667 15.1245 22.4942 14.2576 22.1592 13.4488C21.8242 12.6399 21.3331 11.905 20.714 11.286C20.095 10.6669 19.3601 10.1758 18.5512 9.84081C17.7424 9.50578 16.8755 9.33334 16 9.33334V16H22.6667Z" stroke="#89C949" stroke-width="3" stroke-linecap="round" stroke-linejoin="round"/>
</g>
<defs>
<clipPath id="clip0_220_2155">
<rect width="32" height="32" fill="white"/>
</clipPath>
</defs>
</svg>
