<svg width="24" height="24" viewBox="0 0 24 24" fill="none" xmlns="http://www.w3.org/2000/svg">
<path d="M15.5 9C18.5376 9 21 7.65685 21 6C21 4.34315 18.5376 3 15.5 3C12.4624 3 10 4.34315 10 6" stroke="#8354BF" stroke-width="2" stroke-linecap="round" stroke-linejoin="round"/>
<path d="M15 10C15 8.34315 12.5376 7 9.5 7C6.46243 7 4 8.34315 4 10C4 11.6569 6.46243 13 9.5 13" stroke="#8354BF" stroke-width="2" stroke-linecap="round" stroke-linejoin="round"/>
<path d="M4 10L4 18.5C4 20.16 6.44444 21.5 9.5 21.5C12.5556 21.5 15 20.16 15 18.5V10" stroke="#8354BF" stroke-width="2" stroke-linecap="round" stroke-linejoin="round"/>
<path d="M10 6L10 14.5C10 16.16 12.4444 17.5 15.5 17.5C18.5556 17.5 21 16.16 21 14.5V6" stroke="#8354BF" stroke-width="2" stroke-linecap="round" stroke-linejoin="round"/>
<path d="M14 8L10 12" stroke="#8354BF" stroke-width="2"/>
<path d="M15 11L11 15" stroke="#8354BF" stroke-width="2"/>
<path d="M15 15L13 17" stroke="#8354BF" stroke-width="2"/>
</svg>
