<svg width="57" height="56" viewBox="0 0 57 56" fill="none" xmlns="http://www.w3.org/2000/svg">
<rect x="8.94141" y="8" width="47.3927" height="48" rx="11" fill="#E5F4FF"/>
<path d="M39.8787 29C39.8787 36 30.9926 42 30.9926 42C30.9926 42 22.1064 36 22.1064 29C22.1064 26.6131 23.0427 24.3239 24.7091 22.636C26.3756 20.9482 28.6358 20 30.9926 20C33.3493 20 35.6095 20.9482 37.276 22.636C38.9425 24.3239 39.8787 26.6131 39.8787 29Z" fill="white"/>
<path d="M36.9168 26C36.9168 33 28.0307 39 28.0307 39C28.0307 39 19.1445 33 19.1445 26C19.1445 23.6131 20.0807 21.3239 21.7472 19.636C23.4137 17.9482 25.6739 17 28.0307 17C30.3874 17 32.6476 17.9482 34.3141 19.636C35.9806 21.3239 36.9168 23.6131 36.9168 26Z" stroke="#A8DFFF" stroke-width="3" stroke-linecap="round" stroke-linejoin="round"/>
<path d="M28.0304 29C29.6663 29 30.9924 27.6569 30.9924 26C30.9924 24.3431 29.6663 23 28.0304 23C26.3945 23 25.0684 24.3431 25.0684 26C25.0684 27.6569 26.3945 29 28.0304 29Z" stroke="#A8DFFF" stroke-width="3" stroke-linecap="round" stroke-linejoin="round"/>
<rect x="5.83398" y="5.5" width="44.3927" height="45" rx="9.5" stroke="#A8DFFF" stroke-width="3"/>
</svg>
