<svg width="57" height="56" viewBox="0 0 57 56" fill="none" xmlns="http://www.w3.org/2000/svg">
<rect x="9.27539" y="7.99999" width="47.3927" height="48" rx="11" fill="#E5F4FF"/>
<path d="M27.7056 21.4545C27.7056 25.697 22.1106 29.3333 22.1106 29.3333C22.1106 29.3333 16.5156 25.697 16.5156 21.4545C16.5156 20.0079 17.1051 18.6205 18.1544 17.5976C19.2036 16.5747 20.6267 16 22.1106 16C23.5945 16 25.0176 16.5747 26.0668 17.5976C27.1161 18.6205 27.7056 20.0079 27.7056 21.4545Z" fill="white"/>
<path d="M25.4018 20.2222C25.4018 24.1111 20.4651 27.4444 20.4651 27.4444C20.4651 27.4444 15.5283 24.1111 15.5283 20.2222C15.5283 18.8961 16.0484 17.6244 16.9743 16.6867C17.9001 15.749 19.1558 15.2222 20.4651 15.2222C21.7744 15.2222 23.03 15.749 23.9559 16.6867C24.8817 17.6244 25.4018 18.8961 25.4018 20.2222Z" stroke="#A8DFFF" stroke-width="3" stroke-linecap="round" stroke-linejoin="round"/>
<path d="M20.5244 20.0727H20.5344" stroke="#A8DFFF" stroke-width="3" stroke-linecap="round" stroke-linejoin="round"/>
<path d="M45.478 21.4545C45.478 25.697 39.8831 29.3333 39.8831 29.3333C39.8831 29.3333 34.2881 25.697 34.2881 21.4545C34.2881 20.0079 34.8776 18.6205 35.9268 17.5976C36.9761 16.5747 38.3992 16 39.8831 16C41.3669 16 42.79 16.5747 43.8393 17.5976C44.8886 18.6205 45.478 20.0079 45.478 21.4545Z" fill="white"/>
<g clip-path="url(#clip0_211_2152)">
<path d="M43.1743 20.2222C43.1743 24.1111 38.2375 27.4444 38.2375 27.4444C38.2375 27.4444 33.3008 24.1111 33.3008 20.2222C33.3008 18.8961 33.8209 17.6244 34.7467 16.6867C35.6725 15.749 36.9282 15.2222 38.2375 15.2222C39.5468 15.2222 40.8025 15.749 41.7283 16.6867C42.6541 17.6244 43.1743 18.8961 43.1743 20.2222Z" stroke="#A8DFFF" stroke-width="3" stroke-linecap="round" stroke-linejoin="round"/>
<path d="M38.2617 20.5455H38.2717" stroke="#A8DFFF" stroke-width="3" stroke-linecap="round" stroke-linejoin="round"/>
</g>
<path d="M36.2632 36.7879C36.2632 41.0303 30.6682 44.6667 30.6682 44.6667C30.6682 44.6667 25.0732 41.0303 25.0732 36.7879C25.0732 35.3412 25.6627 33.9539 26.712 32.9309C27.7612 31.908 29.1843 31.3333 30.6682 31.3333C32.1521 31.3333 33.5752 31.908 34.6245 32.9309C35.6737 33.9539 36.2632 35.3412 36.2632 36.7879Z" fill="white"/>
<g clip-path="url(#clip1_211_2152)">
<path d="M33.9594 35.5556C33.9594 39.4444 29.0227 42.7778 29.0227 42.7778C29.0227 42.7778 24.0859 39.4444 24.0859 35.5556C24.0859 34.2295 24.6061 32.9577 25.5319 32.02C26.4577 31.0823 27.7134 30.5556 29.0227 30.5556C30.332 30.5556 31.5877 31.0823 32.5135 32.02C33.4393 32.9577 33.9594 34.2295 33.9594 35.5556Z" stroke="#A8DFFF" stroke-width="3" stroke-linecap="round" stroke-linejoin="round"/>
<path d="M28.9277 35.6727H28.9377" stroke="#A8DFFF" stroke-width="3" stroke-linecap="round" stroke-linejoin="round"/>
</g>
<rect x="6.16797" y="5.5" width="44.3927" height="45" rx="9.5" stroke="#A8DFFF" stroke-width="3"/>
<defs>
<clipPath id="clip0_211_2152">
<rect width="13.1646" height="17.3333" fill="white" transform="translate(31.6553 12.6667)"/>
</clipPath>
<clipPath id="clip1_211_2152">
<rect width="13.1646" height="17.3333" fill="white" transform="translate(22.4404 28)"/>
</clipPath>
</defs>
</svg>
