<svg width="118" height="117" viewBox="0 0 118 117" fill="none" xmlns="http://www.w3.org/2000/svg">
<g clip-path="url(#clip0_220_2216)">
<path d="M87.7799 59.6455C81.3162 80.3604 49.1424 89.8057 49.1424 89.8057C49.1424 89.8057 28.0491 63.7395 34.5128 43.0245C36.7169 35.9609 41.6367 30.0621 48.19 26.6259C54.7432 23.1896 62.3931 22.4974 69.4568 24.7014C76.5205 26.9055 82.4192 31.8253 85.8555 38.3786C89.2917 44.9319 89.984 52.5818 87.7799 59.6455Z" stroke="#A8DFFF" stroke-width="6" stroke-linecap="round" stroke-linejoin="round"/>
<path d="M58.3756 60.2129C63.2787 61.7428 68.4937 59.0083 70.0236 54.1052C71.5536 49.2021 68.819 43.9871 63.9159 42.4572C59.0128 40.9273 53.7978 43.6618 52.2679 48.5649C50.738 53.468 53.4725 58.683 58.3756 60.2129Z" stroke="#A8DFFF" stroke-width="6" stroke-linecap="round" stroke-linejoin="round"/>
</g>
<defs>
<clipPath id="clip0_220_2216">
<rect width="93" height="93" fill="white" transform="translate(28.4531) rotate(17.3295)"/>
</clipPath>
</defs>
</svg>
