<svg width="328" height="413" viewBox="0 0 328 413" fill="none" xmlns="http://www.w3.org/2000/svg">
<path d="M250.525 127.18C253.792 124.319 259.305 116.962 272.985 118.188C287.89 119.823 283.194 127.18 296.465 132.903C317.42 141.938 318.9 133.202 325.459 144.143C338.715 166.259 294.575 143.651 301.57 169.077C305.449 183.179 303.816 189.719 290.136 197.281C279.192 203.33 275.231 213.154 274.618 217.31C271.011 218.331 260.448 224.504 247.054 241.017C233.66 257.531 212.48 287.41 203.564 300.286C199.685 304.646 184.739 315.818 155.99 325.628C120.055 337.891 68.2262 357.921 49.4091 376.313C32.0539 393.276 14.91 417.654 13.0653 411.261C12.3433 408.759 11.5114 405.564 9.39047 403.904C7.00708 402.038 3.26414 401.791 1.4275 400.429C0.733609 399.915 0.399793 399.401 0.366124 398.862C0.09634 394.542 19.0986 388.579 26.5411 367.321C42.9127 320.557 -22.3825 266.511 33.8915 228.959C49.2049 218.74 150.886 161.106 168.649 147.618C186.413 134.129 204.177 130.042 219.49 130.042H219.491C234.804 130.042 247.258 130.042 250.525 127.18Z" fill="#3B6177"/>
<path d="M10.667 243.335V270.535H35.3942V243.335H10.667Z" fill="#3B6177"/>
<path d="M327.999 122.997V151.021H290.908V122.997H327.999Z" fill="#3B6177"/>
<path d="M0.363281 371.093L0.363282 399.117L26.3268 399.117L26.3268 371.093L0.363281 371.093Z" fill="#3B6177"/>
<path d="M250.525 99.1559C253.792 96.2947 259.305 88.9372 272.985 90.1634C287.89 91.7985 283.194 99.1559 296.465 104.878C317.42 113.914 318.9 105.178 325.459 116.119C338.715 138.234 294.575 115.626 301.57 141.053C305.449 155.155 303.816 161.695 290.136 169.256C279.192 175.306 275.231 185.13 274.618 189.285C271.011 190.307 260.448 196.479 247.054 212.993C233.66 229.506 212.48 259.386 203.564 272.261C199.685 276.621 184.739 287.794 155.99 297.604C120.055 309.866 68.2262 329.897 49.4091 348.289C32.0539 365.252 14.91 389.629 13.0653 383.237C12.3433 380.735 11.5114 377.539 9.39047 375.879C7.00708 374.014 3.26414 373.767 1.4275 372.405C0.733609 371.89 0.399793 371.377 0.366124 370.838C0.09634 366.518 19.0986 360.555 26.5411 339.296C42.9127 292.532 -22.3825 238.487 33.8915 200.934C49.2049 190.716 150.886 133.082 168.649 119.593C186.413 106.105 204.177 102.017 219.49 102.017H219.491C234.804 102.017 247.258 102.017 250.525 99.1559Z" fill="white"/>
<rect x="233.645" y="115.04" width="32.1944" height="37.7934" fill="#A3D5EB"/>
<rect x="193.752" y="203.225" width="32.1944" height="14.6974" fill="#A3D5EB"/>
<rect x="47.4775" y="198.326" width="32.1944" height="66.4884" fill="#A3D5EB"/>
<ellipse cx="249.742" cy="115.04" rx="16.0972" ry="6.99878" fill="#C7EBFF"/>
<ellipse cx="63.5747" cy="198.326" rx="16.0972" ry="6.99878" fill="#C7EBFF"/>
<ellipse cx="249.742" cy="152.834" rx="16.0972" ry="6.99878" fill="#78BAD6"/>
<ellipse cx="209.849" cy="217.922" rx="16.0972" ry="6.99878" fill="#78BAD6"/>
<ellipse cx="63.5747" cy="264.814" rx="16.0972" ry="6.99878" fill="#78BAD6"/>
<ellipse cx="209.849" cy="203.225" rx="16.0972" ry="6.99878" fill="#C7EBFF"/>
<rect x="167.447" y="8.82227" width="32.0626" height="153.299" fill="#A8DFFF"/>
<ellipse cx="183.254" cy="8.80737" rx="16.0972" ry="6.99878" fill="#C7EBFF"/>
<ellipse cx="183.254" cy="161.932" rx="16.0972" ry="6.99878" fill="#78BAD6"/>
<path fill-rule="evenodd" clip-rule="evenodd" d="M145.141 42.0884C145.141 45.9054 142.673 48.9996 139.63 48.9996C136.586 48.9996 134.119 45.9054 134.119 42.0884C134.119 38.2714 136.586 35.1772 139.63 35.1772C142.673 35.1772 145.141 38.2714 145.141 42.0884Z" fill="#19141E"/>
<path d="M132.1 69.467L131.869 61.5291C131.869 61.5291 141.544 62.2972 143.614 61.2253C143.614 61.2253 146.144 48.2317 143.127 41.0362L143.066 40.756L122.648 38.375L121.503 50.0557C120.815 48.0332 115.139 45.7399 113.655 48.6361C110.44 54.9117 121.937 59.1373 121.937 59.1373L120.77 69.5623" fill="#FFF4D5"/>
<path opacity="0.398926" fill-rule="evenodd" clip-rule="evenodd" d="M131.869 61.5289L125.345 60.1343L131.838 64.5071L131.869 61.5289Z" fill="black"/>
<path fill-rule="evenodd" clip-rule="evenodd" d="M137.084 49.9072L139.339 55.4022L136.637 55.4365L137.084 49.9072Z" fill="#405FD3"/>
<path fill-rule="evenodd" clip-rule="evenodd" d="M134.681 50.119C134.815 50.859 134.322 51.5673 133.58 51.701C132.837 51.8349 132.127 51.3435 131.993 50.6037C131.858 49.8637 132.351 49.1554 133.094 49.0214C133.836 48.8878 134.546 49.379 134.681 50.119Z" fill="#0D0B6D"/>
<path fill-rule="evenodd" clip-rule="evenodd" d="M142.257 50.119C142.391 50.859 141.898 51.5673 141.156 51.701C140.414 51.8349 139.703 51.3435 139.569 50.6037C139.435 49.8637 139.927 49.1554 140.67 49.0214C141.412 48.8878 142.122 49.379 142.257 50.119Z" fill="#0D0B6D"/>
<path d="M123.02 52.0494C121.084 48.7463 118.283 47.7389 117.026 47.4435C116.524 45.9986 116.142 44.3229 115.873 42.5407C115.153 37.771 118.632 33.4193 121.441 32.1697C124.286 30.9051 129.19 29.1526 136.368 31.5314C141.194 33.1318 144.279 29.3003 147.119 30.9367C151.972 33.7338 147.458 45.9794 135.153 42.8686C126.351 40.6432 126.125 41.2015 126.05 42.819C125.805 48.0475 124.988 51.1234 123.02 52.0494Z" fill="#4D78E1"/>
<path fill-rule="evenodd" clip-rule="evenodd" d="M133.331 55.6406C133.331 55.6406 134.199 57.212 136.073 57.1748L133.331 55.6406Z" fill="white"/>
<path fill-rule="evenodd" clip-rule="evenodd" d="M132.862 55.8975C132.862 55.8973 132.862 55.897 133.331 55.6407C133.801 55.3844 133.8 55.3842 133.8 55.384L133.8 55.3836L133.8 55.383L133.799 55.3822C133.799 55.3819 133.799 55.3818 133.799 55.3818C133.799 55.3818 133.799 55.3819 133.799 55.3821L133.803 55.3881C133.807 55.3947 133.814 55.4065 133.824 55.4227C133.845 55.4552 133.878 55.505 133.924 55.5662C134.017 55.6893 134.159 55.8548 134.35 56.019C134.729 56.3453 135.291 56.6578 136.063 56.6425L136.084 57.7073C134.982 57.7292 134.172 57.2745 133.649 56.8245C133.389 56.6005 133.196 56.3755 133.068 56.2051C133.003 56.1196 132.954 56.0469 132.92 55.9936C132.903 55.9669 132.89 55.945 132.88 55.9287C132.875 55.9205 132.871 55.9137 132.868 55.9084L132.865 55.9016L132.863 55.899L132.863 55.8979L132.862 55.8975Z" fill="#252535"/>
<path fill-rule="evenodd" clip-rule="evenodd" d="M133.305 47.6021C131.877 47.6021 130.716 48.7573 130.716 50.1846C130.716 51.6118 131.877 52.7668 133.305 52.7668C134.734 52.7668 135.895 51.6118 135.895 50.1846C135.895 48.7573 134.734 47.6021 133.305 47.6021ZM129.646 50.1846C129.646 48.1713 131.283 46.5371 133.305 46.5371C135.328 46.5371 136.966 48.1712 136.966 50.1846C136.966 52.1979 135.328 53.8318 133.305 53.8318C131.283 53.8318 129.646 52.1979 129.646 50.1846Z" fill="#252535"/>
<path fill-rule="evenodd" clip-rule="evenodd" d="M141.173 47.6021C139.744 47.6021 138.583 48.7573 138.583 50.1846C138.583 51.6118 139.744 52.7668 141.173 52.7668C142.602 52.7668 143.762 51.6118 143.762 50.1846C143.762 48.7573 142.602 47.6021 141.173 47.6021ZM137.513 50.1846C137.513 48.1712 139.15 46.5371 141.173 46.5371C143.195 46.5371 144.833 48.1713 144.833 50.1846C144.833 52.1979 143.195 53.8318 141.173 53.8318C139.15 53.8318 137.513 52.1979 137.513 50.1846Z" fill="#252535"/>
<path fill-rule="evenodd" clip-rule="evenodd" d="M136.442 49.7964H137.793V50.8614H136.442V49.7964Z" fill="#252535"/>
<path fill-rule="evenodd" clip-rule="evenodd" d="M122.462 49.6519H130.181V50.7169H122.462V49.6519Z" fill="#252535"/>
<path fill-rule="evenodd" clip-rule="evenodd" d="M140.136 247.872L140.212 241.362L131.779 237.134L130.556 255.744H159.77C154.799 250.17 140.136 247.872 140.136 247.872ZM102.713 248.125L102.789 240.813L97.292 245.269L92.8682 247.721L91.4082 255.744H111.404C108.889 248.928 102.713 248.125 102.713 248.125Z" fill="#0D0B6D"/>
<path fill-rule="evenodd" clip-rule="evenodd" d="M102.79 240.814L94.3573 238.291L92.8682 247.721L102.714 248.125L102.79 240.814ZM140.212 241.362L131.78 238.839L131.1 247.467L140.136 247.872L140.212 241.362Z" fill="#FFF4D5"/>
<path d="M141.42 239.227L141.226 245.269H130.103L130.298 239.209C129.052 238.712 128.162 237.515 128.131 236.101L126.341 145.604L106.996 236.969C106.723 238.254 105.765 239.252 104.549 239.62L103.822 245.269H92.1597L93.1634 239.032C92.1923 238.283 91.6295 237.05 91.8231 235.734L109.633 114.642L125.729 114.642L125.728 114.596H145.222L144.053 235.932C144.037 237.528 142.922 238.862 141.42 239.227Z" fill="#4D78E1"/>
<path opacity="0.197824" fill-rule="evenodd" clip-rule="evenodd" d="M126.242 147.039L129.655 131.977L127.087 177.641L126.242 147.039Z" fill="black"/>
<path d="M113.798 114.756L115.666 115.059L95.2935 238.46L93.4199 238.149L113.798 114.756Z" fill="#EFEFEF"/>
<path fill-rule="evenodd" clip-rule="evenodd" d="M171.997 73.1343L171.864 70.8368C171.864 70.8368 171.866 69.2381 172.075 67.5123C172.127 67.0793 172.242 66.6265 172.365 66.143C172.732 64.6992 173.169 62.9814 172.214 60.6992C170.94 57.6552 173.986 59.7569 174.661 61.2047C174.921 61.7644 174.997 62.6102 175.072 63.4492C175.16 64.4196 175.246 65.3809 175.616 65.8792C176.2 65.5642 176.588 65.1539 176.588 65.1539L183.154 56.7315C183.365 56.4482 183.756 56.3635 184.069 56.5303L184.422 56.7209C184.794 56.922 184.912 57.3932 184.674 57.7373C184.219 58.398 183.424 59.5124 182.594 60.6773L182.592 60.6792L182.592 60.6793C181.084 62.7945 179.458 65.0757 179.527 65.1116L179.701 65.3207L187.412 57.2794C187.653 57.012 188.057 56.9644 188.354 57.1682L188.817 57.4858C189.155 57.7161 189.227 58.1767 188.975 58.4943C188.153 59.5444 186.118 61.8187 184.423 63.7121L184.423 63.7121C182.957 65.3503 181.746 66.7032 181.797 66.7315L182.027 66.9512L189.206 60.6806C189.46 60.4001 189.893 60.3683 190.188 60.6039L190.539 60.8871C190.846 61.1333 190.892 61.5806 190.64 61.8823L183.86 68.1873L184.056 68.4917L189.942 64.4022C190.212 64.164 190.619 64.164 190.892 64.3995L191.055 64.5451C191.344 64.7992 191.376 65.236 191.125 65.5298C190.724 65.9986 189.931 66.6145 188.986 67.3488C187.898 68.1938 186.608 69.1955 185.482 70.3101C184.862 70.9242 184.362 71.526 183.856 72.1359C183.028 73.132 182.183 74.1494 180.769 75.2757C179.925 75.9505 179.16 76.3429 178.433 76.7164C178.33 76.7692 178.228 76.8216 178.127 76.8744L171.997 73.1343ZM119.077 67.863C119.077 67.863 123.613 67.8543 126.887 67.8434C130.161 67.8323 134.278 69.201 134.278 69.201C134.278 69.201 136.42 73.9856 128.979 73.5523C121.537 73.1184 119.077 67.863 119.077 67.863ZM94.2666 87.2244C94.2666 87.2244 87.0051 98.0614 87.1697 104.088C87.3641 111.194 110.208 128.654 110.208 128.654L116.128 123.859L101.747 103.925L106.977 92.8491L94.2666 87.2244Z" fill="#FFF4D5"/>
<path d="M114.408 115.17L117.944 119.888L107.292 129.118C107.292 129.118 87.7456 114.875 87.142 103.708C86.7576 96.5953 93.017 86.442 93.017 86.442C93.017 86.442 100.874 73.959 109.955 69.7461C111.819 68.8816 116.338 68.1604 119.077 67.8629C119.917 67.7717 119.415 68.0969 119.703 68.6474C120.004 69.2225 120.921 70.0746 121.555 70.7116C122.875 72.0373 125.476 73.0411 126.873 73.2466C127.938 73.4032 129.996 73.6461 130.986 73.514C131.976 73.3818 133.052 72.9375 133.34 72.6735C133.627 72.4096 134.055 72.0794 134.277 71.5707C134.499 71.0619 134.488 71.2077 134.488 70.7384C134.488 70.2691 134.464 70.3385 134.417 70.1152C134.371 69.8918 134.371 69.7576 134.344 69.6422C134.223 69.1315 134.277 69.2009 134.277 69.2009C139.639 70.8107 142.354 71.4064 144.307 73.7482L159.233 84.1617L169.446 70.9136L182.623 79.7093C182.623 79.7093 170.956 101.319 162.5 103.708C155.689 105.632 148.789 99.6474 146.363 97.2468L149.245 111.794C149.707 114.306 147.495 115.256 145.524 115.167L114.408 115.17Z" fill="#7DC44A"/>
<path opacity="0.201242" fill-rule="evenodd" clip-rule="evenodd" d="M146.317 97.2558L144.533 90.2471L149.35 99.8254L146.317 97.2558Z" fill="black"/>
<path opacity="0.200591" fill-rule="evenodd" clip-rule="evenodd" d="M105.577 101.741L115.373 86.9714L114.256 86.2383L103.957 101.766L112.539 113.865L113.632 113.098L105.577 101.741Z" fill="black"/>
</svg>
