<svg width="755" height="686" viewBox="0 0 755 686" fill="none" xmlns="http://www.w3.org/2000/svg">
<path d="M14.5279 446.746C28.0728 456.415 41.9262 442.283 44.1479 433.656C46.3696 425.028 44.7434 414.02 33.2822 407.178C21.8211 400.335 5.5972 411.194 1.57839 418.037C-2.44042 424.879 0.983013 437.077 14.5279 446.746Z" fill="#64EBE3"/>
<path d="M562.463 279.225C523.418 239.757 398.386 236.658 313 292.322C226.943 348.423 166 338.382 166 378.111C166 413.474 235.649 478.961 313 493.587C390.553 508.251 519.937 511.923 562.463 493.587C610.809 472.741 634.191 431.619 599.296 398.412C570.165 370.689 592.265 309.349 562.463 279.225Z" fill="#A8DFFF"/>
<g clip-path="url(#clip0_381_3424)">
<path d="M536.14 11.857L527.918 42.1053L543.207 38.1402L556.276 49.813L571.565 45.8479L579.787 15.5996L564.498 19.5647L551.429 7.89187L536.14 11.857Z" stroke="#A8DFFF" stroke-width="6" stroke-linecap="round" stroke-linejoin="round"/>
<path d="M551.429 7.8916L543.207 38.1399" stroke="#A8DFFF" stroke-width="6" stroke-linecap="round" stroke-linejoin="round"/>
<path d="M564.497 19.5645L556.275 49.8127" stroke="#A8DFFF" stroke-width="6" stroke-linecap="round" stroke-linejoin="round"/>
</g>
<path d="M234.402 625.161C250.577 636.778 266.055 640.174 268.709 629.808C271.362 619.442 255.377 617.055 241.69 608.834C228.002 600.612 219.114 588.524 214.315 596.745C209.515 604.966 218.226 613.545 234.402 625.161Z" fill="#FFF9C4"/>
<path d="M111.717 307.047C119.844 312.849 128.156 304.37 129.489 299.193C130.822 294.017 129.846 287.412 122.969 283.307C116.093 279.201 106.358 285.716 103.947 289.822C101.536 293.928 103.59 301.246 111.717 307.047Z" fill="#98E5B7"/>
<path d="M492.819 588.457C507.568 598.985 522.653 583.597 525.072 574.203C527.491 564.808 525.721 552.822 513.241 545.371C500.761 537.921 483.095 549.745 478.719 557.195C474.343 564.646 478.07 577.928 492.819 588.457Z" fill="#FFD1C7"/>
<g clip-path="url(#clip1_381_3424)">
<path d="M646.753 546.241C642.147 561.002 619.221 567.733 619.221 567.733C619.221 567.733 604.19 549.159 608.796 534.398C610.367 529.364 613.872 525.161 618.542 522.713C623.212 520.264 628.663 519.771 633.696 521.341C638.73 522.912 642.933 526.418 645.381 531.087C647.83 535.757 648.323 541.208 646.753 546.241Z" stroke="#A8DFFF" stroke-width="6" stroke-linecap="round" stroke-linejoin="round"/>
<path d="M625.801 546.646C629.295 547.736 633.011 545.787 634.101 542.294C635.191 538.8 633.243 535.084 629.749 533.993C626.255 532.903 622.539 534.852 621.449 538.346C620.359 541.839 622.307 545.556 625.801 546.646Z" stroke="#A8DFFF" stroke-width="6" stroke-linecap="round" stroke-linejoin="round"/>
</g>
<path d="M121 555.5C136.188 555.5 148.5 543.188 148.5 528C148.5 512.812 136.188 500.5 121 500.5C105.812 500.5 93.5 512.812 93.5 528C93.5 543.188 105.812 555.5 121 555.5Z" stroke="#A8DFFF" stroke-width="6" stroke-linecap="round" stroke-linejoin="round"/>
<path d="M132 517L122.25 541.75L117.438 531.632L107.25 526.75L132 517Z" stroke="#A8DFFF" stroke-width="6" stroke-linecap="round" stroke-linejoin="round"/>
<path d="M723.223 683.304C737.972 693.833 743.985 670.742 746.404 661.348C748.823 651.953 761.384 639.298 748.904 631.848C736.424 624.397 719.78 641.397 715.404 648.847C711.028 656.298 708.474 672.776 723.223 683.304Z" fill="#4D6FE6" fill-opacity="0.8"/>
<defs>
<clipPath id="clip0_381_3424">
<rect width="47.0186" height="47.0186" fill="white" transform="translate(537.332) rotate(15.2058)"/>
</clipPath>
<clipPath id="clip1_381_3424">
<rect width="66.2695" height="66.2695" fill="white" transform="translate(604.479 503.74) rotate(17.3295)"/>
</clipPath>
</defs>
</svg>
