<svg width="63" height="126" viewBox="0 0 63 126" fill="none" xmlns="http://www.w3.org/2000/svg">
<mask id="mask0_381_3431" style="mask-type:alpha" maskUnits="userSpaceOnUse" x="0" y="0" width="63" height="126">
<rect width="63" height="126" fill="#D9D9D9"/>
</mask>
<g mask="url(#mask0_381_3431)">
<path fill-rule="evenodd" clip-rule="evenodd" d="M15.9529 37.9788C37.9471 67.1972 67.2758 96.934 81.334 110.142C81.6512 109.981 81.9645 109.81 82.2737 109.63C88.4877 103.234 81.6882 84.9295 73.6564 72.9066C65.6246 60.8837 39.1563 38.7157 16.068 37.5364C16.0286 37.6835 15.9902 37.8309 15.9529 37.9788Z" fill="#C7EBFF"/>
<path fill-rule="evenodd" clip-rule="evenodd" d="M81.2398 109.823C72.6173 114.201 61.1144 111.714 50.8657 106.327L57.7525 99.8694L46.26 103.662C41.1545 100.43 36.5647 96.5723 33.081 92.654C29.6058 88.7452 26.2108 83.7581 23.3063 78.1999L32.4026 70.6639L18.044 65.7872C14.9207 56.293 13.679 46.2827 15.8582 37.6597C37.8525 66.8783 67.1815 96.6154 81.2398 109.823Z" fill="#C7EBFF"/>
</g>
</svg>
