<svg width="99" height="180" viewBox="0 0 99 180" fill="none" xmlns="http://www.w3.org/2000/svg">
<mask id="mask0_381_3429" style="mask-type:alpha" maskUnits="userSpaceOnUse" x="0" y="0" width="99" height="180">
<rect width="99" height="180" fill="#D9D9D9"/>
</mask>
<g mask="url(#mask0_381_3429)">
<path fill-rule="evenodd" clip-rule="evenodd" d="M47.1559 33.355C33.4658 89.4871 9.67741 150.787 -2.35254 178.633C-2.89886 178.587 -3.44522 178.525 -3.99144 178.447C-16.646 172.783 -17.9739 141.811 -13.7859 119.325C-13.5916 118.282 -13.354 117.183 -13.0745 116.033L6.30841 126.056L-7.29091 99.0296C-2.23421 86.964 5.30048 73.2166 14.6337 61.0404L26.5401 72.2043L18.7583 55.908C27.0164 46.1188 36.4738 37.7662 46.7283 32.7758C46.872 32.9677 47.0146 33.1608 47.1559 33.355Z" fill="#C7EBFF"/>
<path fill-rule="evenodd" clip-rule="evenodd" d="M-2.40788 178.108C12.4546 179.36 27.2875 168.797 38.6011 154.727L24.9549 149.378L43.5389 148.045C48.8462 140.232 53.0459 131.807 55.6398 123.959C56.6519 120.897 57.5476 117.6 58.3104 114.127L46.3871 113.975L58.9469 111.028C60.4443 103.203 61.2798 94.6184 61.2781 85.8986L42.3898 87.1284L61.1516 80.0841C60.3927 62.6818 56.1682 45.2923 47.1006 32.83C33.4104 88.962 9.62208 150.262 -2.40788 178.108Z" fill="#C7EBFF"/>
</g>
</svg>
