<svg width="164" height="275" viewBox="0 0 164 275" fill="none" xmlns="http://www.w3.org/2000/svg">
<path fill-rule="evenodd" clip-rule="evenodd" d="M73.6295 49.4212C73.298 57.3522 69.0735 62.1048 68.679 69.5066C68.1714 79.0267 73.6682 78.0205 73.2517 85.8328C73.0357 89.8816 109.352 99.6552 119.586 86.9242C126.154 78.7549 119.64 77.7364 120.23 66.653C120.816 55.6814 112.862 54.0345 113.171 48.2502C113.581 40.5529 107.355 30.2969 97.1905 29.7605C84.8104 29.1074 74.1307 37.4343 73.6295 49.4212Z" fill="#19141E"/>
<path fill-rule="evenodd" clip-rule="evenodd" d="M92.1366 68.0427C92.1366 68.0427 95.7767 68.3419 97.376 67.5806L92.203 70.4384L92.1366 68.0427Z" fill="#CF3E83"/>
<path d="M100.475 61.2804C99.2331 63.0367 99.5744 65.4548 100.152 66.8878C100.347 67.3799 101.565 71.4848 101.765 71.6783C102.539 72.4287 92.3634 76.2105 92.3634 76.2105L92.1367 68.0426C89.2446 68.056 85.8685 67.7265 84.0755 66.401C78.7345 62.4523 79.0841 49.7542 79.2086 49.1247L84.1275 44.2105C84.1275 44.2105 91.3009 41.3681 92.2937 42.7888C94.1095 45.3905 98.0737 56.8136 101.444 55.7112C101.444 55.7112 101.213 52.2127 104.135 52.3708C106.312 52.4886 106.809 54.2542 106.754 55.2558C106.568 58.6375 102.144 58.9142 100.475 61.2804Z" fill="#FFF4D4"/>
<path fill-rule="evenodd" clip-rule="evenodd" d="M84.8662 55.3232L82.5114 60.2371L84.9346 60.3165L84.8662 55.3232Z" fill="#125475"/>
<path fill-rule="evenodd" clip-rule="evenodd" d="M87.0765 55.6584C87.0748 56.6648 87.6274 57.478 88.3107 57.475C88.994 57.4719 89.5491 56.6533 89.5508 55.6472C89.5525 54.6407 88.9999 53.8275 88.3166 53.8306C87.6333 53.8337 87.0782 54.6522 87.0765 55.6584Z" fill="#0D0B6D"/>
<path fill-rule="evenodd" clip-rule="evenodd" d="M80.6878 55.1608C80.6862 56.1673 81.2387 56.9805 81.922 56.9774C82.6053 56.9743 83.1604 56.1558 83.1621 55.1496C83.1638 54.1432 82.6112 53.3299 81.9279 53.333C81.2446 53.3361 80.6895 54.1547 80.6878 55.1608Z" fill="#0D0B6D"/>
<path fill-rule="evenodd" clip-rule="evenodd" d="M83.2409 35.9093C83.0003 35.6419 82.7452 35.3869 82.4767 35.1455C81.8742 35.659 81.303 36.2069 80.7693 36.7896C77.8986 39.9189 76.0636 43.9859 75.8157 48.5049C75.8092 48.6193 75.8033 48.7309 75.7996 48.8453H75.7968L75.5958 52.5068C75.7386 52.509 75.879 52.5057 76.0221 52.4998C78.8177 52.3753 81.3456 51.1526 83.1289 49.2424C83.7902 48.5329 84.3501 47.7278 84.7852 46.8501C84.8538 46.72 84.9145 46.584 84.9752 46.4536C85.2781 45.7591 85.5038 45.0234 85.641 44.257C95.1962 57.66 101.445 55.7116 101.445 55.7116L100.539 48.7013L107.502 41.263C107.502 41.263 87.6444 32.742 83.2409 35.9093Z" fill="#19141E"/>
<path fill-rule="evenodd" clip-rule="evenodd" d="M83.2409 35.9093C83.0003 35.6419 82.7452 35.3869 82.4767 35.1455C81.8742 35.659 81.303 36.2069 80.7693 36.7896C77.8986 39.9189 76.0636 43.9859 75.8157 48.5049C75.8092 48.6193 75.8033 48.7309 75.7996 48.8453H75.7968L75.5958 52.5068C75.7386 52.509 75.879 52.5057 76.0221 52.4998C78.8177 52.3753 81.3456 51.1526 83.1289 49.2424C83.7902 48.5329 84.3501 47.7278 84.7852 46.8501C84.8538 46.72 84.9145 46.584 84.9752 46.4536C85.2781 45.7591 85.5038 45.0234 85.641 44.257C95.1962 57.66 101.445 55.7116 101.445 55.7116L100.539 48.7013L107.502 41.263C107.502 41.263 87.6444 32.742 83.2409 35.9093Z" fill="#19141E"/>
<path d="M85.4001 62.7541C85.4001 62.7541 86.9502 63.3427 88.624 61.6807" stroke="#1C295E" stroke-width="3"/>
<path opacity="0.396996" fill-rule="evenodd" clip-rule="evenodd" d="M92.1425 68.0432C92.1425 68.0432 95.7826 68.3421 97.3818 67.5811L92.2088 70.4388L92.1425 68.0432Z" fill="black"/>
<path fill-rule="evenodd" clip-rule="evenodd" d="M68.577 134.142C68.577 134.142 71.7682 134.54 72.3755 135.959C74.1128 140.017 70.5128 147.271 70.5128 147.271C70.5128 147.271 72.0381 146.347 72.3416 147.155C72.4769 147.515 72.783 150.389 67.0681 150.582C66.4614 150.603 65.0019 149.377 65.0019 149.377C65.0019 149.377 66.0661 151.395 64.4366 151.791C64.4366 151.791 61.8104 147.884 61.7701 147.014C61.73 146.144 62.5728 141.742 63.0285 140.853C63.4842 139.964 68.577 134.142 68.577 134.142ZM122.616 141.265L123.747 134.284C125.289 134.991 126.621 134.933 127.73 134.884C128.869 134.835 129.773 134.795 130.428 135.606C131.734 137.225 133.237 140.549 134.02 142.519C134.343 143.332 134.532 146.308 134.288 147.99C134.15 148.942 133.674 149.875 133.674 149.875C133.674 149.875 133.199 151.658 132.94 151.844C132.208 152.372 131.74 151.614 131.74 151.614C131.74 151.614 131.559 154.116 130.98 153.957C130.623 153.859 130.064 153.476 129.964 152.874C129.327 149.044 127.985 145.139 126.555 144.637C125.637 144.315 125.548 145.87 125.464 147.326C125.418 148.137 125.373 148.918 125.188 149.325C124.685 150.43 122.231 151.518 122.62 149.658C123.152 147.11 123.026 146.089 122.838 144.568C122.829 144.496 122.82 144.423 122.811 144.348C122.609 142.7 122.616 141.265 122.616 141.265Z" fill="#FFF4D4"/>
<path opacity="0.152414" d="M69.3457 139.384C69.3457 139.384 68.5438 142.393 65.7917 143.33C64.8292 143.658 65.0698 147.528 62.711 147.065" stroke="black" stroke-width="3"/>
<path d="M103.112 73.9735L102.303 68.1431L89.9666 69.8323L90.6394 74.6776C87.0181 75.0249 84.553 75.7268 82.2462 77.8303C74.8372 84.5857 74.2923 109.874 74.2923 109.874L66.4627 136.444L72.906 137.246C72.906 137.246 83.6918 123.051 86.0749 115.418H108.169C108.169 115.418 107.96 113.15 108.48 109.871C109.163 105.584 111.617 102.387 111.617 102.387L116.055 107.81L123.746 134.866L130.814 136.125C130.814 136.125 132.934 114.008 128.645 101.93C124.896 91.3663 118.054 79.8942 112.712 76.5515C109.321 74.4285 106.135 73.9629 103.112 73.9735Z" fill="#F06C5A"/>
<path opacity="0.195894" d="M83.8828 115.713C82.977 104.288 76.7074 101.872 81.225 89.0586" stroke="black" stroke-width="3"/>
<path opacity="0.195894" d="M106.115 94.106L111.617 102.385" stroke="black" stroke-width="3"/>
<path fill-rule="evenodd" clip-rule="evenodd" d="M72.5512 200.511L77.779 201.363C77.779 201.363 81.1308 206.082 81.2291 206.854C81.3276 207.626 80.0274 214.947 79.2009 215.523C79.0173 215.651 78.7878 216.513 78.4534 217.768C77.365 221.854 75.1653 230.113 69.8172 230.824C65.7163 231.37 66.2213 228.158 66.8824 223.953C67.019 223.084 67.1623 222.173 67.2729 221.244C68.327 212.391 72.5512 200.511 72.5512 200.511ZM13.2471 211.366L31.5215 203.712C31.5215 203.712 35.0185 212.682 27.5039 213.149C27.5039 213.149 17.0041 222.677 9.89243 219.878C5.16213 218.017 6.91716 216.596 10.3199 213.839C11.2115 213.117 12.2162 212.303 13.2471 211.366Z" fill="#0D0B6D"/>
<path d="M54.2714 126.121C49.3219 125.631 44.1587 128.518 42.6714 134.054C36.0661 158.636 26.2747 196.057 24.9774 201.478L13.2469 211.366C13.2469 211.366 14.4937 213.223 17.6103 213.533C20.7269 213.842 31.5885 204.203 31.5885 204.203L31.4998 204.14L55.2843 155.117C62.2852 177.493 69.9621 201.951 71.0483 205.091C69.6913 210.439 68.0253 218.83 70.8344 219.142C74.9692 219.602 78.5232 205.826 78.5232 205.826L78.4823 205.792L71.7462 147.396L85.7373 143.352L79.7048 131.041L64.3098 125.023C60.6824 123.605 57.0379 124.246 54.2714 126.121Z" fill="#FFF4D4"/>
<path opacity="0.20266" d="M55.286 155.121C55.286 155.121 48.7535 137.963 49.6801 132.326C50.6068 126.689 57.001 125.423 57.001 125.423" stroke="black" stroke-width="3"/>
<path d="M107.839 112.73C107.839 112.73 120.551 125.826 116.749 136.928C112.674 148.829 73.5703 147.22 73.5703 147.22C73.5703 147.22 65.9445 129.197 46.0886 128.049L83.5509 113.118L107.839 112.73Z" fill="#2F2F3D"/>
</svg>
