<svg width="178" height="64" viewBox="0 0 178 64" fill="none" xmlns="http://www.w3.org/2000/svg">
<rect width="178" height="64" rx="15" fill="white"/>
<rect x="9" y="10" width="48" height="47" rx="10" fill="#EBFAE5"/>
<rect x="19.8027" y="19.8032" width="31.1699" height="31.1699" rx="7" fill="#EBFAE5"/>
<rect x="17.2373" y="17.2373" width="29.5251" height="29.5251" rx="5.5" stroke="#7DC44A" stroke-width="3"/>
<circle cx="34.0326" cy="34.0326" r="8.13127" fill="white"/>
<path d="M27.9212 25.2236C27.7347 25.3359 27.5531 25.4558 27.3768 25.5829C26.791 26.005 26.2638 26.507 25.8112 27.0763C25.0075 28.0871 24.4638 29.2793 24.2274 30.5488C23.991 31.8183 24.0691 33.1264 24.4551 34.3587C24.841 35.591 25.5229 36.71 26.4412 37.6179C27.3595 38.5257 28.4862 39.1948 29.7228 39.5666C30.9595 39.9385 32.2683 40.0017 33.5351 39.7508C34.8018 39.5 35.9877 38.9426 36.9893 38.1275C37.4896 37.7203 37.9363 37.255 38.3208 36.7429C38.4837 36.5259 38.6355 36.3005 38.7754 36.0676" stroke="#7DC44A" stroke-width="3" stroke-linecap="round" stroke-linejoin="round"/>
<path d="M39.9054 31.9996C39.9054 30.9615 39.7009 29.9335 39.3036 28.9744C38.9064 28.0152 38.3241 27.1438 37.59 26.4097C36.8559 25.6756 35.9844 25.0933 35.0253 24.696C34.0661 24.2987 33.0382 24.0942 32 24.0942V31.9996H39.9054Z" stroke="#7DC44A" stroke-width="3" stroke-linecap="round" stroke-linejoin="round"/>
<rect x="76.8027" y="19.8027" width="31.1699" height="31.1699" rx="7" fill="#EBFAE5"/>
<rect x="74.2373" y="17.2373" width="29.5251" height="29.5251" rx="5.5" stroke="#7DC44A" stroke-width="3"/>
<path d="M93.0655 23.8687H84.9342C84.395 23.8687 83.878 24.0828 83.4968 24.4641C83.1155 24.8453 82.9014 25.3623 82.9014 25.9015V42.164C82.9014 42.7032 83.1155 43.2202 83.4968 43.6014C83.878 43.9827 84.395 44.1968 84.9342 44.1968H97.1311C97.6702 44.1968 98.1873 43.9827 98.5685 43.6014C98.9497 43.2202 99.1639 42.7032 99.1639 42.164V29.9671L93.0655 23.8687Z" fill="white"/>
<path d="M90.7783 22.5132H83.6635C83.1917 22.5132 82.7393 22.7131 82.4057 23.0689C82.0722 23.4247 81.8848 23.9073 81.8848 24.4105V39.5889C81.8848 40.0921 82.0722 40.5746 82.4057 40.9305C82.7393 41.2863 83.1917 41.4862 83.6635 41.4862H94.3358C94.8075 41.4862 95.2599 41.2863 95.5935 40.9305C95.9271 40.5746 96.1145 40.0921 96.1145 39.5889V28.2051L90.7783 22.5132Z" stroke="#7DC44A" stroke-width="3" stroke-linecap="round" stroke-linejoin="round"/>
<path d="M91.3712 36.7432H86.6279" stroke="#7DC44A" stroke-width="3" stroke-linecap="round" stroke-linejoin="round"/>
<path d="M87.8137 32H87.2208H86.6279" stroke="#7DC44A" stroke-width="3" stroke-linecap="round" stroke-linejoin="round"/>
<rect x="132.864" y="18.8647" width="33.5676" height="33.5676" rx="11" fill="#EBFAE5"/>
<rect x="129.986" y="15.9863" width="32.027" height="32.027" rx="9.5" stroke="#7DC44A" stroke-width="3"/>
<path d="M142.136 36.9591L149.271 29.824C151.161 27.9341 154.392 29.2726 154.392 31.9453V39.2162C154.392 40.873 153.049 42.2162 151.392 42.2162H144.257C142.6 42.2162 141.257 40.873 141.257 39.2162V39.0804C141.257 38.2848 141.573 37.5217 142.136 36.9591Z" fill="white"/>
<path d="M146 39.7834V30.0537" stroke="#7DC44A" stroke-width="3" stroke-linecap="round" stroke-linejoin="round"/>
<path d="M151.838 39.7834V24.2158" stroke="#7DC44A" stroke-width="3" stroke-linecap="round" stroke-linejoin="round"/>
<path d="M140.162 39.7835V35.8916" stroke="#7DC44A" stroke-width="3" stroke-linecap="round" stroke-linejoin="round"/>
</svg>
