<svg width="140" height="154" viewBox="0 0 140 154" fill="none" xmlns="http://www.w3.org/2000/svg">
<mask id="mask0_381_3427" style="mask-type:alpha" maskUnits="userSpaceOnUse" x="0" y="0" width="140" height="154">
<rect width="140" height="154" rx="28" fill="#D9D9D9"/>
</mask>
<g mask="url(#mask0_381_3427)">
<path fill-rule="evenodd" clip-rule="evenodd" d="M48.1876 30.5104C48.3562 30.653 48.5265 30.7965 48.6983 30.9408C74.2138 52.3738 54.4247 54.1085 42.554 33.2934C37.8054 35.7381 32.821 38.5659 27.6232 41.9275C28.3849 51.5424 32.7482 59.4177 47.9514 72.1884C74.3918 94.3983 38.4329 81.7069 26.7991 58.4394C24.7295 54.3001 22.4123 50.5373 19.994 47.1534C18.74 48.0616 17.475 49.0024 16.1994 49.9779C11.0546 53.9121 6.30919 59.0209 2.23617 64.8051C3.97996 80.1346 9.32621 93.2713 25.7172 99.6852C50.0423 109.204 41.5814 129.298 18.3139 107.089C10.8628 99.9761 6.12324 92.6468 1.87228 86.073C-0.336288 82.6577 -2.41298 79.4462 -4.66953 76.5752C-19.5764 107.522 -14.9502 146.704 39.4657 138.817C53.2159 188.525 111.384 164.2 120.901 138.817C121.066 138.378 121.228 137.939 121.387 137.499C118.027 135.475 115.105 135.627 111.081 135.836H111.08C107.499 136.022 103.044 136.253 96.6303 135.036C84.4686 132.729 93.2106 122.463 105.395 126.432C113.095 128.941 120.202 128.712 124.416 128.011C125.459 124.246 126.315 120.488 126.995 116.749C124.556 116.498 121.946 116.125 119.133 115.601C92.0416 110.556 106.998 105.961 128.041 109.978C128.548 105.999 128.862 102.051 128.999 98.1483C124.214 96.6246 118.221 95.7082 111.383 96.5126C93.4039 98.6278 76.4821 95.455 78.5973 90.1669C80.7126 84.8789 91.2887 82.7636 99.7496 86.9941C106.732 90.4852 118.756 91.0953 128.689 83.4753C126.008 48.7924 109.904 19.6128 92.3465 7.67334C86.4603 14.5411 77.3885 18.2234 65.7643 22.9417C60.4237 25.1094 54.5443 27.4959 48.1876 30.5104ZM89.2448 46.1591C94.5319 42.9861 105.149 45.0433 100.874 51.4475C96.6403 57.7915 91.3641 58.8522 86.0752 56.7369C81.8442 55.0447 85.8604 48.2741 89.2448 46.1591Z" fill="#C7EBFF"/>
</g>
</svg>
