<svg width="53" height="53" viewBox="0 0 53 53" fill="none" xmlns="http://www.w3.org/2000/svg">
<path d="M11.333 15.6665L11.333 38.7198C11.333 42.7481 17.5923 45.9998 25.4163 45.9998C33.2404 45.9998 39.4997 42.7481 39.4997 38.7198V15.6665" stroke="#4B9ECD" stroke-width="4" stroke-linecap="round" stroke-linejoin="round"/>
<path d="M25.4163 22.1667C33.1944 22.1667 39.4997 18.7715 39.4997 14.5833C39.4997 10.3952 33.1944 7 25.4163 7C17.6383 7 11.333 10.3952 11.333 14.5833C11.333 18.7715 17.6383 22.1667 25.4163 22.1667Z" stroke="#4B9ECD" stroke-width="4" stroke-linecap="round" stroke-linejoin="round"/>
<path d="M32.9997 33.5909C32.9997 39.1061 25.4163 43.8333 25.4163 43.8333C25.4163 43.8333 17.833 39.1061 17.833 33.5909C17.833 31.7103 18.632 29.9067 20.0541 28.5769C21.4763 27.2471 23.4051 26.5 25.4163 26.5C27.4276 26.5 29.3564 27.2471 30.7786 28.5769C32.2007 29.9067 32.9997 31.7103 32.9997 33.5909Z" stroke="#4B9ECD" stroke-width="4" stroke-linecap="round" stroke-linejoin="round"/>
</svg>
