<svg width="101" height="100" viewBox="0 0 101 100" fill="none" xmlns="http://www.w3.org/2000/svg">
<path d="M71.9252 41.5866C73.4128 36.9888 67.1642 30.8496 57.9686 27.8744C48.7729 24.8991 40.1124 26.2145 38.6248 30.8123" stroke="#BDEB90" stroke-width="6" stroke-linecap="round" stroke-linejoin="round"/>
<path d="M38.625 30.8123L29.7542 58.2296C28.2042 63.0204 34.353 69.282 43.6031 72.2749C52.8532 75.2677 61.5045 73.7947 63.0546 69.0039L71.9254 41.5866" stroke="#BDEB90" stroke-width="6" stroke-linecap="round" stroke-linejoin="round"/>
<path d="M52.5814 44.5246C61.7771 47.4998 70.4376 46.1844 71.9252 41.5866C73.4128 36.9888 67.1642 30.8496 57.9686 27.8744C48.7729 24.8991 40.1124 26.2145 38.6248 30.8123C37.1372 35.4102 43.3858 41.5493 52.5814 44.5246Z" stroke="#BDEB90" stroke-width="6" stroke-linecap="round" stroke-linejoin="round"/>
</svg>
