<svg width="24" height="24" viewBox="0 0 24 24" fill="none" xmlns="http://www.w3.org/2000/svg">
<path d="M16 8C18.7614 8 21 6.65685 21 5C21 3.34315 18.7614 2 16 2C13.2386 2 11 3.34315 11 5C11 6.65685 13.2386 8 16 8Z" stroke="#8354BF" stroke-width="2" stroke-linecap="round" stroke-linejoin="round"/>
<path d="M11 5V19C11 20.66 13.2222 22 16 22C18.7778 22 21 20.66 21 19V5" stroke="#8354BF" stroke-width="2" stroke-linecap="round" stroke-linejoin="round"/>
<path d="M3 8.9187H8.0813" stroke="#8354BF" stroke-width="2" stroke-linecap="round"/>
<path d="M4 3.5C4 2.67157 4.67157 2 5.5 2V2C6.32843 2 7 2.67157 7 3.5V19L5.5 22L4 19V3.5Z" stroke="#8354BF" stroke-width="2" stroke-linecap="round" stroke-linejoin="round"/>
</svg>
