<svg width="24" height="24" viewBox="0 0 24 24" fill="none" xmlns="http://www.w3.org/2000/svg">
<path d="M18 7C18 5.34315 15.3137 4 12 4C8.68629 4 6 5.34315 6 7" stroke="#8354BF" stroke-width="2" stroke-linecap="round" stroke-linejoin="round"/>
<path d="M6 7L6 16.88C6 18.6064 8.66667 20 12 20C13.4868 20 14.8409 19.7228 15.8849 19.2624M18 7V15.5" stroke="#8354BF" stroke-width="2" stroke-linecap="round" stroke-linejoin="round"/>
<path d="M12 10C15.3137 10 18 8.65685 18 7C18 5.34315 15.3137 4 12 4C8.68629 4 6 5.34315 6 7C6 8.65685 8.68629 10 12 10Z" stroke="#8354BF" stroke-width="2" stroke-linecap="round" stroke-linejoin="round"/>
<path d="M11 11L7 15" stroke="#8354BF" stroke-width="2" stroke-linecap="round"/>
<path d="M18 9L8 19" stroke="#8354BF" stroke-width="2" stroke-linecap="round"/>
<path d="M18 14L17 15" stroke="#8354BF" stroke-width="2" stroke-linecap="round"/>
<path d="M15 17L12 20" stroke="#8354BF" stroke-width="2" stroke-linecap="round"/>
<path d="M16.9163 21L14 14L21 16.9163L16.9163 21Z" stroke="#8354BF" stroke-width="2" stroke-linecap="round" stroke-linejoin="round"/>
<path d="M19 19L21 21" stroke="#8354BF" stroke-width="2" stroke-linecap="round" stroke-linejoin="round"/>
</svg>
