<svg width="1076" height="242" viewBox="0 0 1076 242" fill="none" xmlns="http://www.w3.org/2000/svg">
<g opacity="0.3">
<mask id="mask0_210_2068" style="mask-type:alpha" maskUnits="userSpaceOnUse" x="23" y="20" width="1030" height="196">
<rect x="23" y="20" width="1030" height="196" fill="url(#paint0_linear_210_2068)"/>
</mask>
<g mask="url(#mask0_210_2068)">
<path d="M461.5 -111.628C415.31 -111.628 388.401 -87.9986 353.284 -62.9715C331.997 -47.831 303.135 -42.59 280.251 -60.8233C246.809 -87.468 244.038 -121.825 226.314 -157.037C214.561 -180.86 198.311 -202.284 178.422 -220.174C137.864 -256.022 85.2183 -275.897 30.6149 -275.974C-32.0448 -275.974 -92.2104 -247.802 -133.293 -201.708C-164.662 -166.522 -178.282 -121.476 -183.758 -75.9121C-190.291 -21.5616 -188.206 41.0839 -149.763 84.5513C-102.016 138.565 -21.3552 132.432 38.7443 165.249C55.9005 174.618 71.737 187.248 83.1789 202.958C96.112 220.686 100.559 241.65 111.117 261.061C128.471 292.973 160.039 301.177 198.218 301.177C242.349 301.177 269.706 281.015 289.067 246.322C300.126 226.497 311.594 202.246 330.532 188.49C350.499 173.971 381.116 162.609 405.188 160.021C449.002 155.311 495.614 180.092 535.271 157.523C557.508 144.752 575.968 126.521 588.835 104.626C601.701 82.7319 608.529 57.9286 608.647 32.6595C608.647 -5.60793 593.144 -42.3081 565.549 -69.3672C537.953 -96.4264 500.526 -111.628 461.5 -111.628V-111.628Z" fill="#B1E2FF"/>
<path d="M1013.8 274.002C1130.42 274.002 1224.95 181.302 1224.95 66.9521C1224.95 -47.3982 1130.42 -140.097 1013.8 -140.097C897.183 -140.097 802.646 -47.3982 802.646 66.9521C802.646 181.302 897.183 274.002 1013.8 274.002Z" fill="#B1E2FF"/>
<path d="M677.826 310.261C722.287 310.261 758.329 274.92 758.329 231.324C758.329 187.728 722.287 152.386 677.826 152.386C633.366 152.386 597.324 187.728 597.324 231.324C597.324 274.92 633.366 310.261 677.826 310.261Z" fill="#B1E2FF"/>
</g>
</g>
<defs>
<linearGradient id="paint0_linear_210_2068" x1="1053" y1="193.915" x2="112.747" y2="-196.27" gradientUnits="userSpaceOnUse">
<stop stop-color="#3488B8"/>
<stop offset="1" stop-color="#4B9ECD"/>
</linearGradient>
</defs>
</svg>
