<svg width="16" height="16" viewBox="0 0 16 16" fill="none" xmlns="http://www.w3.org/2000/svg">
<path d="M11.333 2C11.5081 1.8249 11.716 1.68601 11.9447 1.59125C12.1735 1.49649 12.4187 1.44772 12.6663 1.44772C12.914 1.44772 13.1592 1.49649 13.3879 1.59125C13.6167 1.68601 13.8246 1.8249 13.9997 2C14.1748 2.1751 14.3137 2.38297 14.4084 2.61174C14.5032 2.84051 14.552 3.08571 14.552 3.33333C14.552 3.58096 14.5032 3.82615 14.4084 4.05493C14.3137 4.2837 14.1748 4.49157 13.9997 4.66667L4.99967 13.6667L1.33301 14.6667L2.33301 11L11.333 2Z" stroke="#FDFDFD" stroke-width="2" stroke-linecap="round" stroke-linejoin="round"/>
</svg>
