<svg width="24" height="24" viewBox="0 0 24 24" fill="none" xmlns="http://www.w3.org/2000/svg">
<path d="M14.0581 9.83044C14.6706 10.4348 15.1575 11.1545 15.4907 11.9478C15.824 12.7412 15.9971 13.5927 16 14.4532C16.0028 15.3138 15.8355 16.1664 15.5075 16.962C15.1796 17.7575 14.6975 18.4804 14.0891 19.0889C13.4806 19.6974 12.7578 20.1795 11.9623 20.5075C11.1668 20.8355 10.3143 21.0028 9.45381 21C8.59335 20.9971 7.74196 20.824 6.94865 20.4907C6.15535 20.1574 5.43581 19.6704 4.83146 19.0579C3.643 17.8273 2.98538 16.179 3.00025 14.4682C3.01511 12.7574 3.70127 11.1209 4.91093 9.91111C6.1206 8.70133 7.75698 8.01511 9.46764 8.00025C11.1783 7.98538 12.8264 8.64306 14.0569 9.83162L14.0581 9.83044Z" stroke="#8354BF" stroke-width="2" stroke-linecap="round" stroke-linejoin="round"/>
<path d="M18.0581 5.83044C18.6706 6.43484 19.1575 7.15445 19.4907 7.94783C19.824 8.7412 19.9971 9.59267 20 10.4532C20.0028 11.3138 19.8355 12.1664 19.5075 12.962C19.1796 13.7575 18.6975 14.4804 18.0891 15.0889C17.4806 15.6974 16.7578 16.1795 15.9623 16.5075C15.1668 16.8355 14.3143 17.0028 13.4538 17C12.5933 16.9971 11.742 16.824 10.9487 16.4907C10.1554 16.1574 9.43581 15.6704 8.83146 15.0579C7.643 13.8273 6.98538 12.179 7.00025 10.4682C7.01511 8.75742 7.70127 7.12088 8.91093 5.91111C10.1206 4.70133 11.757 4.01511 13.4676 4.00025C15.1783 3.98538 16.8264 4.64306 18.0569 5.83162L18.0581 5.83044Z" stroke="#8354BF" stroke-width="2" stroke-linecap="round" stroke-linejoin="round"/>
<path d="M12 8L7 13" stroke="#8354BF" stroke-width="2"/>
<path d="M14 10L9 15" stroke="#8354BF" stroke-width="2"/>
<path d="M16 12L11 17" stroke="#8354BF" stroke-width="2"/>
</svg>
