<svg width="24" height="24" viewBox="0 0 24 24" fill="none" xmlns="http://www.w3.org/2000/svg">
<path d="M14.9911 7.32544C14.8272 7.49265 14.7354 7.71745 14.7354 7.95159C14.7354 8.18573 14.8272 8.41053 14.9911 8.57774L16.4223 10.0089C16.5895 10.1728 16.8143 10.2646 17.0484 10.2646C17.2825 10.2646 17.5074 10.1728 17.6746 10.0089L20.5227 7.16085C20.9724 8.15482 21.1086 9.26225 20.9131 10.3356C20.7175 11.4089 20.1995 12.3971 19.428 13.1686C18.6566 13.94 17.6683 14.4581 16.595 14.6536C15.5217 14.8492 14.4143 14.713 13.4203 14.2632L7.23928 20.4442C6.88343 20.8001 6.40078 21 5.89753 21C5.39427 21 4.91163 20.8001 4.55577 20.4442C4.19992 20.0884 4 19.6057 4 19.1025C4 18.5992 4.19992 18.1166 4.55577 17.7607L10.7368 11.5797C10.287 10.5857 10.1508 9.4783 10.3464 8.40498C10.5419 7.33165 11.06 6.34342 11.8314 5.57197C12.6029 4.80052 13.5911 4.28249 14.6644 4.08693C15.7377 3.89137 16.8452 4.02756 17.8391 4.47734L15 7.31649L14.9911 7.32544Z" stroke="white" stroke-width="2" stroke-linecap="round" stroke-linejoin="round"/>
</svg>
